<svg xmlns="http://www.w3.org/2000/svg" viewBox="0 0 24 24" fill="currentColor">
  <path fill-rule="evenodd" d="M10.213 1.018c.39 0 .762.158 1.03.438l.395.412 1.353 1.428 1.058 1.115.352.37.066.07A5.25 5.25 0 0 1 16.5 8.25c0 1.205-.42 2.31-1.12 3.166-.3.36-.628.694-.972 1.002a11.196 11.196 0 0 0-.813.923c-.266.333-.513.68-.737 1.039a.75.75 0 0 1-1.214-.025c-.224-.359-.47-.706-.737-1.039a11.198 11.198 0 0 0-.813-.923c-.344-.308-.672-.642-.972-1.002C8.42 10.561 8 9.455 8 8.25c0-1.12.33-2.167.901-3.018a.75.75 0 0 1 .066-.07l.352-.37 1.058-1.115 1.353-1.428.395-.412c.268-.28.64-.438 1.03-.438ZM11.25 12.66c.261.344.54.676.83 1.003.29.326.59.64.9.943.31.304.628.595.952.873a.75.75 0 1 1-1.06 1.06c-.324-.278-.642-.569-.952-.873a12.693 12.693 0 0 0-.9-.943c-.29-.327-.568-.66-.83-1.003a.75.75 0 1 1 1.226-.884ZM9.166 14.82a.75.75 0 0 1-1.06-1.06c.324.278.642.569.952.873.31.304.62.61.93.922.31.31.628.61.952.9.324.29.658.566.998.83a.75.75 0 0 1-1.022 1.1c-.34-.265-.675-.54-1-.83-.323-.29-.642-.59-.952-.9a12.694 12.694 0 0 0-.93-.922c-.31-.304-.628-.61-.952-.9Z" clip-rule="evenodd" />
  <path d="M7.11 18.007a.75.75 0 0 1 1.06 0c.31.31.628.61.952.9.324.29.658.566 1 .83a.75.75 0 1 1-1.022 1.1c-.34-.265-.674-.54-1-.83a12.692 12.692 0 0 0-.952-.9c-.31-.31-.62-.61-.93-.922a.75.75 0 0 1 0-1.06Z" />
  <path d="M12.39 18.907c.31-.31.62-.61.93-.922.31-.304.628-.61.952-.9a.75.75 0 1 1 1.06 1.06c-.324.278-.642.569-.952.873a12.694 12.694 0 0 0-.93.922c-.31.31-.628.61-.952.9-.324.29-.674.565-1 .83a.75.75 0 0 1-1.022-1.1c.34-.265.675-.54 1-.83.323-.29.642-.59.952-.9.01-.009.019-.018.029-.027Z" />
</svg>